<svg width="132" height="50" viewBox="0 0 132 50" fill="none"
    xmlns="http://www.w3.org/2000/svg">
    <path d="M14.7486 35.5818C10.324 40.8943 6.63687 45.4478 0 44.6889V50H132V0.670465C131.508 0.164516 129.64 -0.543812 126.101 0.670465C121.676 2.18831 112.089 16.6079 103.24 21.1614C94.3911 25.7149 84.8045 15.0893 75.9553 14.3304C67.1061 13.5714 63.419 27.991 55.3073 29.5088C47.1955 31.0267 41.2961 26.4747 33.1844 24.9569C25.0726 23.439 19.1732 30.2694 14.7486 35.5818Z" fill="url(#paint0_linear_4_1818)"/>
    <path d="M13.1982 39.054C13.9315 39.8353 16.1315 40.6165 19.0648 37.4915C22.7315 33.5853 24.9315 24.2103 33.7315 22.6478C42.5315 21.0853 44.7315 29.679 55.7315 32.0228C66.7315 34.3665 70.3982 32.0234 76.2648 28.1172C82.1315 24.2109 88.7315 9.36719 98.9982 9.36719C109.265 9.36719 112.932 12.4922 120.265 20.3047C126.132 26.5547 130.532 28.1172 131.998 28.1172" stroke="#894BA9" stroke-width="0.5"/>
    <defs>
        <linearGradient id="paint0_linear_4_1818" x1="106.19" y1="3.03569" x2="104.628" y2="52.3629" gradientUnits="userSpaceOnUse">
            <stop stop-color="#DC2430"/>
            <stop offset="1" stop-color="#DC2430" stop-opacity="0"/>
        </linearGradient>
    </defs>
</svg>
