<svg width="15" height="15" viewBox="0 0 15 15" fill="none" xmlns="http://www.w3.org/2000/svg">
<path d="M12.2338 7.07937V4.77168H4.15684C3.85082 4.77168 3.55733 4.65012 3.34094 4.43373C3.12456 4.21734 3.00299 3.92385 3.00299 3.61784C3.00299 2.98322 3.52222 2.46399 4.15684 2.46399H11.0799V4.77168" stroke="#DBDFEA" stroke-width="0.8" stroke-linecap="round" stroke-linejoin="round"/>
<path d="M3.00299 3.6178V10.5409C3.00299 11.1755 3.52222 11.6947 4.15684 11.6947H12.2338V9.38703" stroke="#DBDFEA" stroke-width="0.8" stroke-linecap="round" stroke-linejoin="round"/>
<path d="M11.0799 7.07935C10.7739 7.07935 10.4804 7.20091 10.264 7.4173C10.0477 7.63369 9.92609 7.92717 9.92609 8.23319C9.92609 8.86781 10.4453 9.38704 11.0799 9.38704H13.3876V7.07935H11.0799Z" stroke="#DBDFEA" stroke-width="0.8" stroke-linecap="round" stroke-linejoin="round"/>
</svg>
